<svg id="visual" viewBox="0 0 900 600" width="900" height="600" xmlns="http://www.w3.org/2000/svg" xmlns:xlink="http://www.w3.org/1999/xlink" version="1.1"><rect width="900" height="600" fill="#001220"></rect><g><g transform="translate(850 564)"><path d="M0 -37.4L20.2 -31.5L34 -15.5L37 5.3L28.3 24.5L10.5 35.9L-10.5 35.9L-28.3 24.5L-37 5.3L-34 -15.5L-20.2 -31.5Z" fill="none" stroke="#10a6ec" stroke-width="3"></path></g><g transform="translate(268 215)"><path d="M0 -27L14.6 -22.7L24.6 -11.2L26.7 3.8L20.4 17.7L7.6 25.9L-7.6 25.9L-20.4 17.7L-26.7 3.8L-24.6 -11.2L-14.6 -22.7Z" fill="none" stroke="#10a6ec" stroke-width="3"></path></g><g transform="translate(364 535)"><path d="M0 -17L9.2 -14.3L15.5 -7.1L16.8 2.4L12.8 11.1L4.8 16.3L-4.8 16.3L-12.8 11.1L-16.8 2.4L-15.5 -7.1L-9.2 -14.3Z" stroke="#10a6ec" fill="none" stroke-width="3"></path></g><g transform="translate(776 599)"><path d="M0 -36L19.5 -30.3L32.7 -15L35.6 5.1L27.2 23.6L10.1 34.5L-10.1 34.5L-27.2 23.6L-35.6 5.1L-32.7 -15L-19.5 -30.3Z" stroke="#10a6ec" fill="none" stroke-width="3"></path></g><g transform="translate(614 447)"><path d="M0 -10L5.4 -8.4L9.1 -4.2L9.9 1.4L7.6 6.5L2.8 9.6L-2.8 9.6L-7.6 6.5L-9.9 1.4L-9.1 -4.2L-5.4 -8.4Z" stroke="#10a6ec" fill="none" stroke-width="3"></path></g><g transform="translate(858 174)"><path d="M0 -15L8.1 -12.6L13.6 -6.2L14.8 2.1L11.3 9.8L4.2 14.4L-4.2 14.4L-11.3 9.8L-14.8 2.1L-13.6 -6.2L-8.1 -12.6Z" stroke="#10a6ec" fill="none" stroke-width="3"></path></g><g transform="translate(376 288)"><path d="M0 -25L13.5 -21L22.7 -10.4L24.7 3.6L18.9 16.4L7 24L-7 24L-18.9 16.4L-24.7 3.6L-22.7 -10.4L-13.5 -21Z" stroke="#10a6ec" fill="none" stroke-width="3"></path></g><g transform="translate(500 145)"><path d="M0 -32L17.3 -26.9L29.1 -13.3L31.7 4.6L24.2 21L9 30.7L-9 30.7L-24.2 21L-31.7 4.6L-29.1 -13.3L-17.3 -26.9Z" stroke="#10a6ec" fill="none" stroke-width="3"></path></g><g transform="translate(133 35)"><path d="M0 -16L8.7 -13.5L14.6 -6.6L15.8 2.3L12.1 10.5L4.5 15.4L-4.5 15.4L-12.1 10.5L-15.8 2.3L-14.6 -6.6L-8.7 -13.5Z" stroke="#10a6ec" fill="none" stroke-width="3"></path></g><g transform="translate(374 61)"><path d="M0 -33L17.8 -27.8L30 -13.7L32.7 4.7L24.9 21.6L9.3 31.7L-9.3 31.7L-24.9 21.6L-32.7 4.7L-30 -13.7L-17.8 -27.8Z" stroke="#10a6ec" fill="none" stroke-width="3"></path></g><g transform="translate(28 16)"><path d="M0 -17L9.2 -14.3L15.5 -7.1L16.8 2.4L12.8 11.1L4.8 16.3L-4.8 16.3L-12.8 11.1L-16.8 2.4L-15.5 -7.1L-9.2 -14.3Z" stroke="#10a6ec" fill="none" stroke-width="3"></path></g><g transform="translate(752 423)"><path d="M0 -36L19.5 -30.3L32.7 -15L35.6 5.1L27.2 23.6L10.1 34.5L-10.1 34.5L-27.2 23.6L-35.6 5.1L-32.7 -15L-19.5 -30.3Z" stroke="#10a6ec" fill="none" stroke-width="3"></path></g><g transform="translate(555 257)"><path d="M0 -16L8.7 -13.5L14.6 -6.6L15.8 2.3L12.1 10.5L4.5 15.4L-4.5 15.4L-12.1 10.5L-15.8 2.3L-14.6 -6.6L-8.7 -13.5Z" stroke="#10a6ec" fill="none" stroke-width="3"></path></g><g transform="translate(361 378)"><path d="M0 -13L7 -10.9L11.8 -5.4L12.9 1.9L9.8 8.5L3.7 12.5L-3.7 12.5L-9.8 8.5L-12.9 1.9L-11.8 -5.4L-7 -10.9Z" stroke="#10a6ec" fill="none" stroke-width="3"></path></g><g transform="translate(706 246)"><path d="M0 -30L16.2 -25.2L27.3 -12.5L29.7 4.3L22.7 19.6L8.5 28.8L-8.5 28.8L-22.7 19.6L-29.7 4.3L-27.3 -12.5L-16.2 -25.2Z" stroke="#10a6ec" fill="none" stroke-width="3"></path></g><g transform="translate(645 201)"><path d="M0 -18L9.7 -15.1L16.4 -7.5L17.8 2.6L13.6 11.8L5.1 17.3L-5.1 17.3L-13.6 11.8L-17.8 2.6L-16.4 -7.5L-9.7 -15.1Z" stroke="#10a6ec" fill="none" stroke-width="3"></path></g><g transform="translate(515 439)"><path d="M0 -12L6.5 -10.1L10.9 -5L11.9 1.7L9.1 7.9L3.4 11.5L-3.4 11.5L-9.1 7.9L-11.9 1.7L-10.9 -5L-6.5 -10.1Z" stroke="#10a6ec" fill="none" stroke-width="3"></path></g><g transform="translate(156 237)"><path d="M0 -19L10.3 -16L17.3 -7.9L18.8 2.7L14.4 12.4L5.4 18.2L-5.4 18.2L-14.4 12.4L-18.8 2.7L-17.3 -7.9L-10.3 -16Z" stroke="#10a6ec" fill="none" stroke-width="3"></path></g><g transform="translate(589 80)"><path d="M0 -32L17.3 -26.9L29.1 -13.3L31.7 4.6L24.2 21L9 30.7L-9 30.7L-24.2 21L-31.7 4.6L-29.1 -13.3L-17.3 -26.9Z" stroke="#10a6ec" fill="none" stroke-width="3"></path></g><g transform="translate(126 529)"><path d="M0 -33L17.8 -27.8L30 -13.7L32.7 4.7L24.9 21.6L9.3 31.7L-9.3 31.7L-24.9 21.6L-32.7 4.7L-30 -13.7L-17.8 -27.8Z" stroke="#10a6ec" fill="none" stroke-width="3"></path></g></g></svg>