<svg id="visual" viewBox="0 0 900 600" width="900" height="600" xmlns="http://www.w3.org/2000/svg" xmlns:xlink="http://www.w3.org/1999/xlink" version="1.1"><rect x="0" y="0" width="900" height="600" fill="#00121b"></rect><path d="M0 388L21.5 398.8C43 409.7 86 431.3 128.8 437.7C171.7 444 214.3 435 257.2 436.7C300 438.3 343 450.7 385.8 453.8C428.7 457 471.3 451 514.2 449.2C557 447.3 600 449.7 642.8 439.8C685.7 430 728.3 408 771.2 418.8C814 429.7 857 473.3 878.5 495.2L900 517L900 601L878.5 601C857 601 814 601 771.2 601C728.3 601 685.7 601 642.8 601C600 601 557 601 514.2 601C471.3 601 428.7 601 385.8 601C343 601 300 601 257.2 601C214.3 601 171.7 601 128.8 601C86 601 43 601 21.5 601L0 601Z" fill="#0066FF" stroke-linecap="round" stroke-linejoin="miter"></path></svg>